<svg width="94" height="14" viewBox="0 0 94 14" fill="none" xmlns="http://www.w3.org/2000/svg">
<path d="M5.232 13.192C4.37867 13.192 3.6 12.9947 2.896 12.6C2.20267 12.2053 1.648 11.6667 1.232 10.984C0.826667 10.3013 0.624 9.52267 0.624 8.648C0.624 7.77333 0.826667 6.99467 1.232 6.312C1.648 5.62933 2.20267 5.09067 2.896 4.696C3.58933 4.30133 4.368 4.104 5.232 4.104C6.08533 4.104 6.85867 4.30133 7.552 4.696C8.24533 5.09067 8.79467 5.62933 9.2 6.312C9.616 6.984 9.824 7.76267 9.824 8.648C9.824 9.52267 9.616 10.3013 9.2 10.984C8.784 11.6667 8.22933 12.2053 7.536 12.6C6.84267 12.9947 6.07467 13.192 5.232 13.192ZM5.232 11.272C5.70133 11.272 6.112 11.16 6.464 10.936C6.82667 10.712 7.10933 10.4027 7.312 10.008C7.52533 9.60267 7.632 9.14933 7.632 8.648C7.632 8.136 7.52533 7.688 7.312 7.304C7.10933 6.90933 6.82667 6.6 6.464 6.376C6.112 6.14133 5.70133 6.024 5.232 6.024C4.752 6.024 4.33067 6.14133 3.968 6.376C3.60533 6.6 3.31733 6.90933 3.104 7.304C2.90133 7.688 2.8 8.136 2.8 8.648C2.8 9.14933 2.90133 9.60267 3.104 10.008C3.31733 10.4027 3.60533 10.712 3.968 10.936C4.33067 11.16 4.752 11.272 5.232 11.272Z" fill="#FFFCB9"/>
<path d="M14.4333 13V1.08H19.4573C20.2466 1.08 20.9186 1.21867 21.4733 1.496C22.0386 1.76267 22.4706 2.14667 22.7693 2.648C23.0786 3.13867 23.2333 3.736 23.2333 4.44C23.2333 4.984 23.0839 5.496 22.7853 5.976C22.4973 6.44533 22.0333 6.83467 21.3933 7.144V6.136C21.9799 6.36 22.4439 6.63733 22.7853 6.968C23.1266 7.29867 23.3666 7.66667 23.5053 8.072C23.6439 8.47733 23.7133 8.904 23.7133 9.352C23.7133 10.4933 23.3346 11.3893 22.5773 12.04C21.8306 12.68 20.7906 13 19.4573 13H14.4333ZM16.6093 11.08H19.6813C20.2466 11.08 20.6946 10.9253 21.0253 10.616C21.3666 10.296 21.5373 9.87467 21.5373 9.352C21.5373 8.82933 21.3666 8.408 21.0253 8.088C20.6946 7.768 20.2466 7.608 19.6813 7.608H16.6093V11.08ZM16.6093 5.704H19.5693C20.0173 5.704 20.3746 5.576 20.6413 5.32C20.9079 5.05333 21.0413 4.712 21.0413 4.296C21.0413 3.88 20.9079 3.54933 20.6413 3.304C20.3746 3.05867 20.0173 2.936 19.5693 2.936H16.6093V5.704ZM25.3198 13V0.888H27.4158V13H25.3198ZM31.991 13.192C31.383 13.192 30.855 13.0907 30.407 12.888C29.959 12.6853 29.6123 12.3973 29.367 12.024C29.1217 11.64 28.999 11.1973 28.999 10.696C28.999 10.216 29.1057 9.78933 29.319 9.416C29.5323 9.032 29.863 8.712 30.311 8.456C30.759 8.2 31.3243 8.01867 32.007 7.912L34.855 7.448V9.048L32.407 9.464C31.991 9.53867 31.6817 9.672 31.479 9.864C31.2763 10.056 31.175 10.3067 31.175 10.616C31.175 10.9147 31.287 11.1547 31.511 11.336C31.7457 11.5067 32.0337 11.592 32.375 11.592C32.8123 11.592 33.1963 11.5013 33.527 11.32C33.8683 11.128 34.1297 10.8667 34.311 10.536C34.503 10.2053 34.599 9.84267 34.599 9.448V7.208C34.599 6.83467 34.4497 6.52533 34.151 6.28C33.863 6.024 33.479 5.896 32.999 5.896C32.551 5.896 32.151 6.01867 31.799 6.264C31.4577 6.49867 31.207 6.81333 31.047 7.208L29.335 6.376C29.5057 5.91733 29.7723 5.52267 30.135 5.192C30.5083 4.85067 30.9457 4.584 31.447 4.392C31.9483 4.2 32.4923 4.104 33.079 4.104C33.7937 4.104 34.423 4.23733 34.967 4.504C35.511 4.76 35.9323 5.12267 36.231 5.592C36.5403 6.05067 36.695 6.58933 36.695 7.208V13H34.711V11.512L35.159 11.48C34.935 11.8533 34.6683 12.168 34.359 12.424C34.0497 12.6693 33.6977 12.8613 33.303 13C32.9083 13.128 32.471 13.192 31.991 13.192ZM42.8243 13.192C41.9603 13.192 41.1816 12.9947 40.4883 12.6C39.8056 12.1947 39.2669 11.6507 38.8723 10.968C38.4776 10.2747 38.2803 9.496 38.2803 8.632C38.2803 7.768 38.4776 6.99467 38.8723 6.312C39.2669 5.62933 39.8056 5.09067 40.4883 4.696C41.1816 4.30133 41.9603 4.104 42.8243 4.104C43.4429 4.104 44.0189 4.216 44.5523 4.44C45.0856 4.65333 45.5443 4.952 45.9283 5.336C46.3229 5.70933 46.6056 6.15733 46.7763 6.68L44.9363 7.48C44.7763 7.04267 44.5043 6.69067 44.1203 6.424C43.7469 6.15733 43.3149 6.024 42.8243 6.024C42.3656 6.024 41.9549 6.136 41.5923 6.36C41.2403 6.584 40.9629 6.89333 40.7603 7.288C40.5576 7.68267 40.4563 8.136 40.4563 8.648C40.4563 9.16 40.5576 9.61333 40.7603 10.008C40.9629 10.4027 41.2403 10.712 41.5923 10.936C41.9549 11.16 42.3656 11.272 42.8243 11.272C43.3256 11.272 43.7629 11.1387 44.1363 10.872C44.5096 10.6053 44.7763 10.248 44.9363 9.8L46.7763 10.632C46.6056 11.1227 46.3283 11.5653 45.9443 11.96C45.5603 12.344 45.1016 12.648 44.5683 12.872C44.0349 13.0853 43.4536 13.192 42.8243 13.192ZM48.3666 13V0.888H50.4626V8.824L49.6626 8.584L53.7586 4.296H56.3666L53.1506 7.8L56.4306 13H54.0306L51.1826 8.488L52.4306 8.232L49.8066 11.048L50.4626 9.768V13H48.3666ZM63.425 13.192C62.5717 13.192 61.7823 13.0373 61.057 12.728C60.3317 12.4187 59.697 11.9867 59.153 11.432C58.609 10.8773 58.1823 10.2267 57.873 9.48C57.5743 8.73333 57.425 7.91733 57.425 7.032C57.425 6.14667 57.569 5.33067 57.857 4.584C58.1557 3.82667 58.5717 3.176 59.105 2.632C59.649 2.07733 60.2837 1.65067 61.009 1.352C61.7343 1.04267 62.5237 0.888 63.377 0.888C64.2303 0.888 64.993 1.032 65.665 1.32C66.3477 1.608 66.9237 1.992 67.393 2.472C67.8623 2.94133 68.1983 3.45867 68.401 4.024L66.465 4.952C66.241 4.33333 65.8623 3.832 65.329 3.448C64.7957 3.064 64.145 2.872 63.377 2.872C62.6303 2.872 61.969 3.048 61.393 3.4C60.8277 3.752 60.385 4.23733 60.065 4.856C59.7557 5.47467 59.601 6.2 59.601 7.032C59.601 7.864 59.761 8.59467 60.081 9.224C60.4117 9.84267 60.865 10.328 61.441 10.68C62.017 11.032 62.6783 11.208 63.425 11.208C64.033 11.208 64.593 11.0907 65.105 10.856C65.617 10.6107 66.0277 10.2693 66.337 9.832C66.6463 9.384 66.801 8.856 66.801 8.248V7.336L67.793 8.2H63.377V6.36H68.977V7.56C68.977 8.47733 68.8223 9.288 68.513 9.992C68.2037 10.696 67.7823 11.288 67.249 11.768C66.7263 12.2373 66.1343 12.5947 65.473 12.84C64.8117 13.0747 64.129 13.192 63.425 13.192ZM74.7789 13.192C73.9255 13.192 73.1469 12.9947 72.4429 12.6C71.7495 12.2053 71.1949 11.6667 70.7789 10.984C70.3735 10.3013 70.1709 9.52267 70.1709 8.648C70.1709 7.77333 70.3735 6.99467 70.7789 6.312C71.1949 5.62933 71.7495 5.09067 72.4429 4.696C73.1362 4.30133 73.9149 4.104 74.7789 4.104C75.6322 4.104 76.4055 4.30133 77.0989 4.696C77.7922 5.09067 78.3415 5.62933 78.7469 6.312C79.1629 6.984 79.3709 7.76267 79.3709 8.648C79.3709 9.52267 79.1629 10.3013 78.7469 10.984C78.3309 11.6667 77.7762 12.2053 77.0829 12.6C76.3895 12.9947 75.6215 13.192 74.7789 13.192ZM74.7789 11.272C75.2482 11.272 75.6589 11.16 76.0109 10.936C76.3735 10.712 76.6562 10.4027 76.8589 10.008C77.0722 9.60267 77.1789 9.14933 77.1789 8.648C77.1789 8.136 77.0722 7.688 76.8589 7.304C76.6562 6.90933 76.3735 6.6 76.0109 6.376C75.6589 6.14133 75.2482 6.024 74.7789 6.024C74.2989 6.024 73.8775 6.14133 73.5149 6.376C73.1522 6.6 72.8642 6.90933 72.6509 7.304C72.4482 7.688 72.3469 8.136 72.3469 8.648C72.3469 9.14933 72.4482 9.60267 72.6509 10.008C72.8642 10.4027 73.1522 10.712 73.5149 10.936C73.8775 11.16 74.2989 11.272 74.7789 11.272ZM80.9604 13V0.888H83.0564V13H80.9604ZM89.0396 13.192C88.197 13.192 87.445 12.9947 86.7836 12.6C86.1223 12.1947 85.5996 11.6453 85.2156 10.952C84.8316 10.2587 84.6396 9.49067 84.6396 8.648C84.6396 7.79467 84.8316 7.02667 85.2156 6.344C85.5996 5.66133 86.1223 5.11733 86.7836 4.712C87.4556 4.30667 88.2023 4.104 89.0236 4.104C89.685 4.104 90.2716 4.23733 90.7836 4.504C91.3063 4.76 91.717 5.12267 92.0156 5.592L91.6956 6.024V0.888H93.7916V13H91.8076V11.32L92.0316 11.736C91.733 12.2053 91.317 12.568 90.7836 12.824C90.2503 13.0693 89.669 13.192 89.0396 13.192ZM89.2636 11.272C89.7436 11.272 90.165 11.16 90.5276 10.936C90.8903 10.712 91.173 10.4027 91.3756 10.008C91.589 9.61333 91.6956 9.16 91.6956 8.648C91.6956 8.14667 91.589 7.69867 91.3756 7.304C91.173 6.89867 90.8903 6.584 90.5276 6.36C90.165 6.136 89.7436 6.024 89.2636 6.024C88.7943 6.024 88.373 6.14133 87.9996 6.376C87.6263 6.6 87.333 6.90933 87.1196 7.304C86.917 7.688 86.8156 8.136 86.8156 8.648C86.8156 9.16 86.917 9.61333 87.1196 10.008C87.333 10.4027 87.6263 10.712 87.9996 10.936C88.373 11.16 88.7943 11.272 89.2636 11.272Z" fill="white"/>
</svg>
